<svg width="128" height="35" viewBox="0 0 128 35" fill="none" xmlns="http://www.w3.org/2000/svg">
  <path fill-rule="evenodd" clip-rule="evenodd" d="M11.0769 16.1431C11.0769 14.5115 13.8547 14.0781 13.8547 16.0412C13.8547 18.5141 14.296 20.1967 12.4269 20.1967C10.6356 20.2222 11.0769 18.3866 11.0769 16.1431ZM1.91312 11.8601C1.91312 9.05576 3.36687 6.45535 5.05426 4.79823C6.66377 3.21759 9.41552 1.73893 12.2451 1.73893C14.2181 1.73893 16.5804 1.61145 18.4755 2.14683C18.9428 2.2743 19.3062 2.35079 19.7995 2.52925C20.2038 2.69564 20.6204 2.83199 21.0455 2.93715C21.2013 2.45276 21.5907 1.8664 21.6686 1.30552C17.6526 -0.122151 16.7362 0.00277101 12.5307 0.00277101C10.816 -0.0171779 9.11614 0.317551 7.54179 0.98519C5.96743 1.65283 4.5538 2.63843 3.39283 3.87789C2.33847 5.02662 1.49523 6.34643 0.900683 7.7785C-0.293471 10.6084 0.0440076 16.37 0.0440076 19.8118C0.0440076 21.9278 0.0180476 23.6359 0.848763 25.395C2.1208 28.0719 4.92446 30.4428 8.66268 30.4428H12.201C16.5882 30.4428 20.3524 26.5932 20.3524 22.2847V14.2566C20.3524 11.5287 18.3016 9.33619 15.1345 9.33619C13.3173 9.33619 11.7857 9.18323 10.4617 10.4834C10.0601 10.8739 9.74104 11.3384 9.52275 11.8502C9.30446 12.3621 9.19127 12.9113 9.18967 13.4663V19.4319C9.18967 21.7264 10.7992 22.0833 12.6683 21.7009C13.3173 21.5734 13.4211 21.3185 13.8624 21.038C13.9144 22.7206 13.1096 23.9444 11.3703 23.9444H9.63098C8.7921 23.9333 7.99034 23.6029 7.39468 23.0227C6.79903 22.4425 6.45601 21.6578 6.43792 20.8341V12.5485C6.43792 9.10675 9.55311 6.27689 13.0836 6.27689H16.121C19.9111 6.27689 23.0522 9.59114 23.0522 12.8544V23.1795C23.0522 25.9839 21.4687 28.6098 19.8332 30.2159C16.744 33.2752 13.5769 33.1988 9.63098 33.1988C6.67156 33.1988 5.42549 32.332 3.91981 32.0515L3.24486 33.6067L3.91981 33.9381C4.14866 34.0031 4.37395 34.0797 4.59477 34.1675C7.63208 35.1873 9.78675 34.9834 12.9538 34.9834C17.6785 34.9834 21.91 31.7456 23.7791 27.7685C24.436 26.2592 24.7971 24.6418 24.8435 23.0011V13.0583C24.8435 8.52038 20.8976 4.51779 16.3805 4.51779C12.227 4.51779 9.8127 4.0589 6.72348 7.24567C5.24377 8.74983 4.54285 10.8913 4.54285 13.5427C4.54285 15.6588 4.30921 20.0438 4.69861 21.8538C5.13993 23.8679 7.035 25.6525 9.29351 25.6525H11.6299C12.1721 25.6532 12.7092 25.5488 13.2103 25.3453C13.7114 25.1418 14.1667 24.8433 14.5501 24.4667C14.9335 24.0902 15.2375 23.643 15.4447 23.1509C15.6519 22.6588 15.7582 22.1314 15.7575 21.5989V15.5313C15.7575 13.9761 15.0826 13.1348 13.4471 13.1348C11.8116 13.1348 11.8376 13.5682 11.0847 13.8742C11.0847 10.7894 13.1875 11.0698 15.3681 11.0698C16.1975 11.0889 16.9879 11.4193 17.577 11.9931C18.166 12.5668 18.5089 13.3403 18.5352 14.1546V22.4912C18.5352 24.1483 17.4709 25.9329 16.4844 26.8762C14.1999 29.0177 11.9414 28.7373 9.00795 28.7373C5.21781 28.7373 1.92091 25.6525 1.92091 22.0068L1.91312 11.8601Z" fill="#E85A00"/>
  <path fill-rule="evenodd" clip-rule="evenodd" d="M53.962 21.6178C52.69 21.6178 50.9766 20.9805 51.8333 19.5783C52.7159 18.0996 57.5445 18.3801 58.1675 18.686C58.4011 21.006 56.0388 21.6178 53.962 21.6178ZM52.1448 15.3463C52.9755 14.1226 53.1313 13.9441 55.0783 13.9441C57.207 13.9441 58.0637 14.25 58.0637 16.1621L55.5975 16.0601C46.4077 15.8817 47.0567 21.5414 48.9258 23.122C50.4834 24.4477 54.1956 24.4732 56.1945 23.8868C57.6223 23.4534 57.83 23.02 58.2194 22.8671C58.3752 23.326 58.3752 23.7849 58.6607 24.1163L61.8019 24.0908C61.9057 22.8416 61.8278 18.9664 61.8278 17.4368C61.8278 15.3463 61.8279 13.5872 60.6077 12.4399C59.0761 11.0378 56.8176 10.9868 54.7148 10.9868C51.7035 10.9868 48.77 12.3125 48.5883 15.3208L52.1448 15.3463Z" fill="#E85A00"/>
  <path fill-rule="evenodd" clip-rule="evenodd" d="M101.365 16.5193C101.235 13.409 108.555 13.1031 108.581 16.5193H101.365ZM112.112 20.2924C106.894 20.1395 108.945 20.3434 107.439 20.9808C106.089 21.5416 104.064 21.5161 102.844 20.9808C102.428 20.8111 102.068 20.5299 101.807 20.1693C101.545 19.8087 101.392 19.3832 101.365 18.9412L112.405 18.8877C112.769 14.3752 110.614 11.7748 106.616 11.112C102.541 10.4236 98.4908 12.4632 97.8159 15.7774C96.1025 24.216 104.28 25.4142 108.823 23.7061C110.277 23.1962 112.068 21.6156 112.12 20.2899" fill="#2E2867"/>
  <path fill-rule="evenodd" clip-rule="evenodd" d="M43.761 11.0697H41.866C41.866 13.0582 42.2554 18.1316 41.5544 19.4063C40.568 21.2419 37.2192 21.3948 36.3625 19.6612C36.2052 19.3936 36.0996 19.0997 36.051 18.7944C36.0208 18.5917 36.0034 18.3874 35.999 18.1826C35.8173 16.4489 35.9731 12.1914 35.9731 11.1717L32.3387 11.1971V20.5025C32.3127 22.3381 33.9742 23.9952 36.2586 24.1227C37.9979 24.2247 39.7113 24.1227 41.0352 23.1284C41.3604 22.8702 41.6486 22.5701 41.8919 22.2361C41.9958 24.0207 41.5025 25.2444 40.5939 26.2642C39.244 27.7939 37.9201 27.8703 37.1153 28.0743L37.972 31.3121C39.0363 31.1591 40.3343 30.8277 41.0612 30.4198C43.7351 28.9666 45.5523 26.3662 45.6042 23.1029C45.6561 20.477 45.6042 17.8001 45.6042 15.1742C45.6561 10.3558 46.0974 11.0697 43.761 11.0697Z" fill="#E85A00"/>
  <path fill-rule="evenodd" clip-rule="evenodd" d="M78.0019 16.1886C78.0052 15.5396 77.9531 14.8915 77.8462 14.251C77.8201 13.962 77.7501 13.6784 77.6385 13.4097C77.6357 13.3904 77.6266 13.3725 77.6125 13.3587C77.0154 12.033 75.5357 11.2172 74.082 11.1407C72.8878 11.0642 71.6937 11.0897 70.7072 11.4212C69.9052 11.7082 69.1906 12.1907 68.6304 12.8233C68.5525 12.9253 68.215 13.3842 68.215 13.0528V11.4721H64.7624V24.1173H68.4487V19.8087C68.4487 18.534 68.241 16.9534 68.7083 15.9336C69.2275 14.7609 70.837 14.2765 72.135 14.4805C73.2253 14.6079 74.1339 15.2453 74.2637 16.418C74.3156 16.571 74.2637 24.1428 74.2637 24.1428H78.0279V16.7494C78.0341 16.5621 78.0254 16.3746 78.0019 16.1886Z" fill="#E85A00"/>
  <path fill-rule="evenodd" clip-rule="evenodd" d="M91.5004 5.73539V12.7692C91.4225 12.7692 91.3706 12.8457 91.2148 12.6163C89.5534 10.9082 85.8671 10.8572 83.6605 11.9024C79.1695 14.0694 79.0916 22.2276 84.1537 23.9612C85.5558 24.4006 87.0507 24.4709 88.489 24.1651C89.0949 24.0291 89.6798 23.8148 90.2284 23.5278C90.7216 23.2473 91.2408 22.5845 91.5004 22.4825L91.8119 24.0887L95.2126 24.0632V5.73539H91.5004ZM89.0602 21.1339C85.1402 22.0772 83.7384 18.9924 84.3614 16.7489C84.3547 16.7047 84.3638 16.6596 84.3874 16.6214C84.481 16.2631 84.6589 15.9313 84.9066 15.6526C85.1132 15.378 85.3792 15.1516 85.6854 14.9898C86.0471 14.7762 86.4416 14.6212 86.8536 14.5309C87.2665 14.4145 87.6989 14.3798 88.1256 14.4289C88.2911 14.4333 88.456 14.4503 88.6188 14.4799C89.0339 14.5301 89.4391 14.6409 89.8208 14.8088C92.383 16.035 92.1753 20.3945 89.0602 21.1339Z" fill="#2E2867"/>
  <path fill-rule="evenodd" clip-rule="evenodd" d="M116.577 24.1929H118.472C118.472 22.2043 118.083 17.131 118.784 15.8563C119.77 14.0207 123.119 13.8677 123.976 15.6013C124.133 15.869 124.239 16.1628 124.287 16.4681C124.318 16.6708 124.335 16.8752 124.339 17.08C124.521 18.8136 124.365 23.0711 124.365 24.0909L128 24.0654V14.76C128.026 12.9244 126.364 11.2673 124.08 11.1399C122.34 11.0379 120.627 11.1399 119.303 12.1341C118.978 12.3923 118.69 12.6925 118.446 13.0264C118.343 11.2418 118.836 10.0181 119.744 8.99834C121.094 7.46869 122.418 7.39221 123.223 7.18826L122.366 3.95049C121.302 4.10346 120.004 4.43488 119.277 4.84279C116.603 6.29596 114.786 8.89637 114.734 12.1596C114.682 14.7855 114.734 17.4624 114.734 20.0883C114.682 24.9322 114.241 24.1929 116.577 24.1929Z" fill="#2E2867"/>
</svg>
